<svg width="106" height="31" viewBox="0 0 106 31" fill="none" xmlns="http://www.w3.org/2000/svg">
<path d="M13.5882 10.3333L0 31H12.0441L21 16.9091C22.8529 14.0909 26.25 12.2121 29.0294 12.2121H50.6471L58.6765 0H27.1765C22.2353 1.40909 18.5294 2.81818 13.5882 10.3333Z" fill="white"/>
<path d="M22.0294 18.697L14 30.9091H26.3529L27.8971 28.0909C28.8235 26.2121 29.75 25.7424 31.6029 25.2727H42.4118L49.8235 14H29.4412C26.6618 14 23.8824 15.8788 22.0294 18.697Z" fill="white"/>
<path d="M53 12.2121L61.0294 0H90.6765H105.5L97.5367 12.2121H82.6471L70.2941 31H56.7059L69.0588 12.2121H53Z" fill="white"/>
</svg>
