<svg width="170" height="33" viewBox="0 0 170 33" fill="none" xmlns="http://www.w3.org/2000/svg">
<mask id="path-1-inside-1_642_28" fill="white">
<path d="M22 11L0 33H19.5L34 18C37 15 42.5 13 47 13H82L95 0H44C36 1.5 30 3 22 11Z"/>
<path d="M35 20L22 33H42L44.5 30C46 28 47.5 27.5 50.5 27H68L80 15H47C42.5 15 38 17 35 20Z"/>
<path d="M85 13L98 0H146H170L157.107 13H133L113 33H91L111 13H85Z"/>
<path d="M77 21L83 15H106L95 26H82L80 28H93L88 33H65L75 23H87L89 21H77Z"/>
</mask>
<path d="M0 33L-34.6482 -1.64823L-118.296 82H0V33ZM44 0V-49H39.4459L34.9699 -48.1607L44 0ZM95 0L129.648 34.6482L213.296 -49H95V0ZM82 13V62H102.296L116.648 47.6482L82 13ZM34 18L-0.648232 -16.6482L-0.94184 -16.3546L-1.23043 -16.0561L34 18ZM19.5 33V82H40.2846L54.7304 67.0561L19.5 33ZM22 33L-12.6482 -1.64823L-96.2965 82H22V33ZM80 15L114.648 49.6482L198.296 -34H80V15ZM68 27V76H88.2965L102.648 61.6482L68 27ZM50.5 27V-22H46.4446L42.4445 -21.3333L50.5 27ZM44.5 30L82.1428 61.369L82.9466 60.4045L83.7 59.4L44.5 30ZM42 33V82H64.9504L79.6428 64.369L42 33ZM98 0V-49H77.7035L63.3518 -34.6482L98 0ZM85 13L50.3518 -21.6482L-33.2965 62H85V13ZM111 13L145.648 47.6482L229.296 -36H111V13ZM91 33L56.3518 -1.64823L-27.2965 82H91V33ZM113 33V82H133.296L147.648 67.6482L113 33ZM133 13V-36H112.704L98.3518 -21.6482L133 13ZM157.107 13V62H177.522L191.898 47.5051L157.107 13ZM170 0L204.791 34.5051L287.61 -49H170V0ZM83 15V-34H62.7035L48.3518 -19.6482L83 15ZM77 21L42.3518 -13.6482L-41.2965 70H77V21ZM89 21L123.648 55.6482L207.296 -28H89V21ZM65 33L30.3518 -1.64823L-53.2965 82H65V33ZM88 33V82H108.296L122.648 67.6482L88 33ZM106 15L140.648 49.6482L224.296 -34H106V15ZM87 23V72H107.296L121.648 57.6482L87 23ZM75 23V-26H54.7035L40.3518 -11.6482L75 23ZM95 26V75H115.296L129.648 60.6482L95 26ZM82 26V-23H61.7035L47.3518 -8.64823L82 26ZM80 28L45.3518 -6.64823L-38.2965 77H80V28ZM93 28L127.648 62.6482L211.296 -21H93V28ZM34.6482 67.6482L56.6482 45.6482L-12.6482 -23.6482L-34.6482 -1.64823L34.6482 67.6482ZM56.6482 45.6482C57.0241 45.2724 56.8296 45.5198 56.0867 46.0482C55.2819 46.6206 54.2128 47.2536 52.9749 47.8063C51.7799 48.3397 50.9214 48.5767 50.7726 48.6159C50.7277 48.6277 50.8516 48.5938 51.2378 48.512C51.6401 48.4268 52.1825 48.3197 53.0301 48.1607L34.9699 -48.1607C30.7097 -47.3619 22.2317 -45.7913 13.0251 -41.6813C3.15361 -37.2743 -5.17712 -31.1193 -12.6482 -23.6482L56.6482 45.6482ZM44 49H95V-49H44V49ZM60.3518 -34.6482L47.3518 -21.6482L116.648 47.6482L129.648 34.6482L60.3518 -34.6482ZM47 -36C31.776 -36 13.0315 -30.328 -0.648232 -16.6482L68.6482 52.6482C63.9291 57.3673 59.4757 59.3725 57.2782 60.204C54.8698 61.1153 51.4921 62 47 62V-36ZM-1.23043 -16.0561L-15.7304 -1.05608L54.7304 67.0561L69.2304 52.0561L-1.23043 -16.0561ZM19.5 -16H0V82H19.5V-16ZM56.6482 67.6482L69.6482 54.6482L0.351768 -14.6482L-12.6482 -1.64823L56.6482 67.6482ZM69.6482 54.6482C66.4511 57.8454 62.9764 60.0403 59.5744 61.4835C56.1499 62.9363 51.9138 64 47 64V-34C28.9074 -34 12.1101 -26.4066 0.351768 -14.6482L69.6482 54.6482ZM47 64H80V-34H47V64ZM45.3518 -19.6482L33.3518 -7.64823L102.648 61.6482L114.648 49.6482L45.3518 -19.6482ZM68 -22H50.5V76H68V-22ZM42.4445 -21.3333C40.6579 -21.0355 33.7208 -19.9677 26.2161 -16.4655C16.8903 -12.1134 10.1061 -5.80817 5.3 0.6L83.7 59.4C82.3002 61.2664 80.1917 63.7254 77.2337 66.2194C74.1822 68.7923 70.9192 70.819 67.6589 72.3405C62.0292 74.9677 57.3421 75.5356 58.5555 75.3333L42.4445 -21.3333ZM6.85716 -1.36904L4.35716 1.63096L79.6428 64.369L82.1428 61.369L6.85716 -1.36904ZM42 -16H22V82H42V-16ZM63.3518 -34.6482L50.3518 -21.6482L119.648 47.6482L132.648 34.6482L63.3518 -34.6482ZM85 62H111V-36H85V62ZM76.3518 -21.6482L56.3518 -1.64823L125.648 67.6482L145.648 47.6482L76.3518 -21.6482ZM91 82H113V-16H91V82ZM146 -49H98V49H146V-49ZM147.648 67.6482L167.648 47.6482L98.3518 -21.6482L78.3518 -1.64823L147.648 67.6482ZM133 62H157.107V-36H133V62ZM191.898 47.5051L204.791 34.5051L135.209 -34.5051L122.316 -21.5051L191.898 47.5051ZM170 -49H146V49H170V-49ZM48.3518 -19.6482L42.3518 -13.6482L111.648 55.6482L117.648 49.6482L48.3518 -19.6482ZM77 70H89V-28H77V70ZM65 82H88V-16H65V82ZM106 -34H83V64H106V-34ZM47 62H82V-36H47V62ZM54.3518 -13.6482L52.3518 -11.6482L121.648 57.6482L123.648 55.6482L54.3518 -13.6482ZM87 -26H75V72H87V-26ZM40.3518 -11.6482L30.3518 -1.64823L99.6482 67.6482L109.648 57.6482L40.3518 -11.6482ZM129.648 60.6482L140.648 49.6482L71.3518 -19.6482L60.3518 -8.64823L129.648 60.6482ZM82 75H95V-23H82V75ZM114.648 62.6482L116.648 60.6482L47.3518 -8.64823L45.3518 -6.64823L114.648 62.6482ZM122.648 67.6482L127.648 62.6482L58.3518 -6.64823L53.3518 -1.64823L122.648 67.6482ZM93 -21H80V77H93V-21Z" fill="#3671C6" mask="url(#path-1-inside-1_642_28)"/>
</svg>
