<svg width="92" height="24" viewBox="0 0 92 24" fill="none" xmlns="http://www.w3.org/2000/svg">
<mask id="path-1-inside-1_660_7" fill="white">
<path d="M44.5 23.5C60.1667 15.8333 73.3 0.5 0.5 0.5H91.5L67.5 23.5H44.5Z"/>
</mask>
<path d="M44.5 23.5L14.6104 -37.5787L44.5 91.5V23.5ZM67.5 23.5V91.5H94.8228L114.55 72.5952L67.5 23.5ZM91.5 0.5L138.55 49.5952L260.736 -67.5H91.5V0.5ZM0.5 68.5C16.9655 68.5 25.2847 69.4142 28.3906 69.9663C29.9469 70.2429 28.1867 70.0883 24.6589 68.636C21.8949 67.4981 11.8256 63.092 2.71099 51.7725C-8.5485 37.7894 -13.854 18.6616 -10.0187 -0.495504C-6.88672 -16.1392 1.12077 -25.7459 4.25487 -29.1784C7.93971 -33.2142 11.0991 -35.4131 12.1734 -36.1348C13.5058 -37.0299 14.363 -37.4577 14.6104 -37.5787L74.3896 84.5787C81.1421 81.2743 93.8674 74.3743 104.689 62.5222C110.12 56.574 119.693 44.3918 123.335 26.2025C127.68 4.49983 121.828 -17.1435 108.639 -33.5225C97.5952 -47.2379 84.2145 -53.92 76.431 -57.1243C67.8836 -60.643 59.3958 -62.6544 52.1907 -63.935C37.7736 -66.4976 20.4345 -67.5 0.5 -67.5V68.5ZM44.5 91.5H67.5V-44.5H44.5V91.5ZM114.55 72.5952L138.55 49.5952L44.4504 -48.5952L20.4504 -25.5952L114.55 72.5952ZM91.5 -67.5H0.5V68.5H91.5V-67.5Z" fill="#3671C6" mask="url(#path-1-inside-1_660_7)"/>
</svg>
