<svg width="93" height="24" viewBox="0 0 93 24" fill="none" xmlns="http://www.w3.org/2000/svg">
<mask id="path-1-inside-1_642_14" fill="white">
<path d="M69 24H46C61.6667 16 74.4 0 0 0H93L69 24Z"/>
</mask>
<path d="M46 24L14.1656 -38.3424L46 94V24ZM69 24V94H97.9949L118.497 73.4975L69 24ZM93 0L142.497 49.4975L261.995 -70L93 -70V0ZM46 94H69V-46H46V94ZM118.497 73.4975L142.497 49.4975L43.5025 -49.4975L19.5025 -25.4975L118.497 73.4975ZM93 -70H0V70H93V-70ZM0 70C16.7518 70 25.2193 70.9491 28.3723 71.5169C29.9372 71.7987 28.1954 71.6433 24.6675 70.1868C21.8241 69.0128 12.0386 64.6817 2.95542 53.7599C-8.07178 40.5008 -14.245 21.8904 -11.2471 2.30117C-8.74291 -14.062 -0.849738 -24.4679 2.57995 -28.4972C6.45702 -33.0521 9.89654 -35.5909 11.1702 -36.4911C12.7084 -37.5783 13.7633 -38.137 14.1656 -38.3424L77.8344 86.3424C84.8039 82.7835 98.124 75.2464 109.189 62.2472C114.853 55.5929 124.231 42.4995 127.142 23.4801C130.546 1.23458 123.701 -20.0008 110.595 -35.7599C99.4322 -49.1817 86.1603 -55.8878 78.0942 -59.218C69.3437 -62.8308 60.6431 -64.9237 53.1839 -66.2669C38.289 -68.9491 20.4482 -70 0 -70V70Z" fill="#3671C6" mask="url(#path-1-inside-1_642_14)"/>
</svg>
