<svg width="162" height="33" viewBox="0 0 162 33" fill="none" xmlns="http://www.w3.org/2000/svg">
<mask id="path-1-inside-1_642_29" fill="white">
<path d="M18 11L1.12132 27.8787C-0.768574 29.7686 0.569927 33 3.24264 33H14.2275C15.0408 33 15.8192 32.6698 16.3844 32.0851L30 18C33 15 38.5 13 43 13H76.7574C77.553 13 78.3161 12.6839 78.8787 12.1213L85.8787 5.12132C87.7686 3.23143 86.4301 0 83.7574 0H40.2788C40.0933 0 39.907 0.0173833 39.7247 0.051773C31.8617 1.53537 25.908 3.09202 18 11Z"/>
<path d="M31 20L23.1213 27.8787C21.2314 29.7686 22.5699 33 25.2426 33H36.5949C37.4852 33 38.3296 32.6045 38.8995 31.9206L40.5 30C41.9586 28.0553 43.4171 27.5288 46.2548 27.0415C46.4176 27.0135 46.583 27 46.7483 27H62.7574C63.553 27 64.3161 26.6839 64.8787 26.1213L70.8787 20.1213C72.7686 18.2314 71.4301 15 68.7574 15H43C38.5 15 34 17 31 20Z"/>
<path d="M86.1213 7.87868L93.1213 0.87868C93.6839 0.316071 94.447 0 95.2426 0H142H158.799C161.466 0 162.807 3.21911 160.929 5.11255L153.987 12.1126C153.424 12.6805 152.657 13 151.857 13H130.243C129.447 13 128.684 13.3161 128.121 13.8787L109.879 32.1213C109.316 32.6839 108.553 33 107.757 33H94.2426C91.5699 33 90.2314 29.7686 92.1213 27.8787L101.879 18.1213C103.769 16.2314 102.43 13 99.7574 13H88.2426C85.5699 13 84.2314 9.76857 86.1213 7.87868Z"/>
<path d="M64.5595 29.3388L77.6165 15.9088C78.1813 15.3278 78.9572 15 79.7675 15H85.7574C88.4301 15 89.7686 18.2314 87.8787 20.1213L81.8107 26.1893C81.1425 26.8575 81.6157 28 82.5607 28C82.842 28 83.1117 27.8883 83.3107 27.6893L95.3787 15.6213C95.7765 15.2235 96.3161 15 96.8787 15C98.7686 15 99.715 17.285 98.3787 18.6213L89 28L84.8787 32.1213C84.3161 32.6839 83.553 33 82.7574 33H77.2426C74.5699 33 73.2314 29.7686 75.1213 27.8787L81.1893 21.8107C81.8575 21.1425 81.3843 20 80.4393 20C80.158 20 79.8883 20.1117 79.6893 20.3107L67.6319 32.3681C67.2273 32.7727 66.6786 33 66.1064 33C64.199 33 63.2299 30.7064 64.5595 29.3388Z"/>
<path d="M146.172 15H131.243C130.447 15 129.684 15.3161 129.121 15.8787L117.121 27.8787C115.231 29.7686 116.57 33 119.243 33H131.757C132.553 33 133.316 32.6839 133.879 32.1213L139.879 26.1213C141.769 24.2314 140.43 21 137.757 21H134.414C134.149 21 133.895 21.1054 133.707 21.2929C133.077 21.9229 133.523 23 134.414 23H136.586C137.477 23 137.923 24.0771 137.293 24.7071C137.105 24.8946 136.851 25 136.586 25H134.243C131.57 25 130.231 21.7686 132.121 19.8787C132.684 19.3161 133.447 19 134.243 19H146.172C146.702 19 147.211 18.7893 147.586 18.4142C148.846 17.1543 147.953 15 146.172 15Z"/>
</mask>
<path d="M1.12132 27.8787L35.7696 62.5269H35.7696L1.12132 27.8787ZM18 11L52.6482 45.6482L18 11ZM39.7247 0.051773L30.6398 -48.0987L30.6397 -48.0986L39.7247 0.051773ZM85.8787 5.12132L51.2305 -29.527L51.2304 -29.5269L85.8787 5.12132ZM78.8787 12.1213L44.2304 -22.5269L44.2304 -22.5268L78.8787 12.1213ZM30 18L-4.64823 -16.6482L-4.94184 -16.3546L-5.23043 -16.0561L30 18ZM16.3844 32.0851L51.6148 66.1412L51.6149 66.1412L16.3844 32.0851ZM70.8787 20.1213L36.2305 -14.527L36.2304 -14.5269L70.8787 20.1213ZM64.8787 26.1213L30.2304 -8.52691L30.2304 -8.52685L64.8787 26.1213ZM46.2548 27.0415L54.548 75.3346L54.5481 75.3345L46.2548 27.0415ZM40.5 30L78.1429 61.369L78.9467 60.4045L79.7 59.4L40.5 30ZM38.8995 31.9206L76.5422 63.2898L76.5424 63.2896L38.8995 31.9206ZM93.1213 0.87868L127.77 35.5269L127.77 35.5268L93.1213 0.87868ZM86.1213 7.87868L51.4731 -26.7696L51.4731 -26.7695L86.1213 7.87868ZM101.879 18.1213L67.2305 -16.527L67.2304 -16.5269L101.879 18.1213ZM92.1213 27.8787L57.4731 -6.76954L57.4731 -6.76953L92.1213 27.8787ZM109.879 32.1213L75.2305 -2.52692L75.2303 -2.5268L109.879 32.1213ZM128.121 13.8787L162.77 48.5269L162.77 48.5269L128.121 13.8787ZM153.987 12.1126L188.778 46.6178L188.778 46.6176L153.987 12.1126ZM160.929 5.11255L126.139 -29.3926L126.139 -29.3925L160.929 5.11255ZM77.6165 15.9088L112.749 50.0656L112.749 50.0656L77.6165 15.9088ZM64.5595 29.3388L99.6923 63.4956L99.6923 63.4956L64.5595 29.3388ZM89 28L123.648 62.6482L123.648 62.6482L89 28ZM84.8787 32.1213L50.2305 -2.52693L50.2303 -2.5268L84.8787 32.1213ZM81.1893 21.8107L46.5412 -12.8377L46.5411 -12.8376L81.1893 21.8107ZM75.1213 27.8787L40.4731 -6.76955L40.4731 -6.76954L75.1213 27.8787ZM81.8107 26.1893L116.459 60.8377L116.459 60.8376L81.8107 26.1893ZM87.8787 20.1213L122.527 54.7696L122.527 54.7695L87.8787 20.1213ZM95.3787 15.6213L60.7305 -19.027L60.7304 -19.0269L95.3787 15.6213ZM83.3107 27.6893L117.959 62.3376V62.3376L83.3107 27.6893ZM139.879 26.1213L174.527 60.7696L174.527 60.7695L139.879 26.1213ZM133.879 32.1213L99.2305 -2.52692L99.2303 -2.5268L133.879 32.1213ZM117.121 27.8787L82.4731 -6.76955L82.4731 -6.76954L117.121 27.8787ZM129.121 15.8787L163.77 50.5269L163.77 50.5268L129.121 15.8787ZM133.707 21.2929L168.355 55.941L168.356 55.9406L133.707 21.2929ZM137.293 24.7071L102.645 -9.94097L102.644 -9.9406L137.293 24.7071ZM132.121 19.8787L166.77 54.5269L166.77 54.5269L132.121 19.8787ZM147.586 18.4142L182.234 53.0626L182.234 53.0625L147.586 18.4142ZM35.7696 62.5269L52.6482 45.6482L-16.6482 -23.6482L-33.5269 -6.76955L35.7696 62.5269ZM52.6482 45.6482C53.02 45.2764 52.8341 45.5142 52.1116 46.0305C51.3296 46.5892 50.2805 47.2166 49.0536 47.7709C47.8639 48.3084 46.9916 48.5573 46.787 48.6121C46.7445 48.6234 47.1282 48.5195 48.8097 48.2022L30.6397 -48.0986C26.2576 -47.2718 17.8627 -45.6749 8.70485 -41.5374C-1.04362 -37.1332 -9.27313 -31.0233 -16.6482 -23.6482L52.6482 45.6482ZM40.2788 49H83.7574V-49H40.2788V49ZM51.2304 -29.5269L44.2304 -22.5269L113.527 46.7696L120.527 39.7696L51.2304 -29.5269ZM43 -36C27.776 -36 9.03153 -30.328 -4.64823 -16.6482L64.6482 52.6482C59.9291 57.3673 55.4757 59.3725 53.2782 60.204C50.8698 61.1153 47.4921 62 43 62V-36ZM-5.23043 -16.0561L-18.846 -1.97101L51.6149 66.1412L65.2304 52.0561L-5.23043 -16.0561ZM14.2275 -16H3.24264V82H14.2275V-16ZM57.7696 62.5269L65.6482 54.6482L-3.64823 -14.6482L-11.5269 -6.76955L57.7696 62.5269ZM65.6482 54.6482C62.4511 57.8454 58.9764 60.0403 55.5744 61.4835C52.1499 62.9363 47.9138 64 43 64V-34C24.9074 -34 8.11014 -26.4066 -3.64823 -14.6482L65.6482 54.6482ZM43 64H68.7574V-34H43V64ZM36.2304 -14.5269L30.2304 -8.52691L99.5269 60.7696L105.527 54.7696L36.2304 -14.5269ZM62.7574 -22H46.7483V76H62.7574V-22ZM37.9615 -21.2516C35.908 -20.899 29.0357 -19.7658 21.544 -16.1463C12.4795 -11.7669 5.92772 -5.57028 1.30001 0.599982L79.7 59.4C76.5308 63.6255 71.4377 68.5865 64.1764 72.0947C61.1093 73.5765 58.5118 74.3772 56.935 74.7957C56.1433 75.0059 55.5228 75.1419 55.1513 75.2185C54.7822 75.2946 54.5543 75.3335 54.548 75.3346L37.9615 -21.2516ZM2.85713 -1.36901L1.25667 0.551549L76.5424 63.2896L78.1429 61.369L2.85713 -1.36901ZM36.5949 -16H25.2426V82H36.5949V-16ZM58.4731 -33.7696L51.4731 -26.7696L120.77 42.5269L127.77 35.5269L58.4731 -33.7696ZM88.2426 62H99.7574V-36H88.2426V62ZM67.2304 -16.5269L57.4731 -6.76954L126.77 62.5269L136.527 52.7696L67.2304 -16.5269ZM94.2426 82H107.757V-16H94.2426V82ZM142 -49H95.2426V49H142V-49ZM144.527 66.7696L162.77 48.5269L93.4731 -20.7696L75.2305 -2.52692L144.527 66.7696ZM130.243 62H151.857V-36H130.243V62ZM188.778 46.6176L195.72 39.6176L126.139 -29.3925L119.196 -22.3925L188.778 46.6176ZM158.799 -49H142V49H158.799V-49ZM43 62H76.7574V-36H43V62ZM42.4837 -18.2481L29.4268 -4.81809L99.6923 63.4956L112.749 50.0656L42.4837 -18.2481ZM123.648 62.6482L133.027 53.2696L63.7304 -16.0269L54.3518 -6.64823L123.648 62.6482ZM119.527 66.7696L123.648 62.6482L54.3518 -6.64825L50.2305 -2.52693L119.527 66.7696ZM102.28 67.0163L114.338 54.9589L45.0411 -14.3376L32.9837 -2.28011L102.28 67.0163ZM46.5411 -12.8376L40.4731 -6.76955L109.77 62.5269L115.838 56.4589L46.5411 -12.8376ZM77.2426 82H82.7574V-16H77.2426V82ZM116.459 60.8376L122.527 54.7696L53.2304 -14.5269L47.1624 -8.45889L116.459 60.8376ZM85.7574 -34H79.7675V64H85.7574V-34ZM60.7304 -19.0269L48.6624 -6.95889L117.959 62.3376L130.027 50.2696L60.7304 -19.0269ZM131.243 64H146.172V-34H131.243V64ZM146.172 -30H134.243V68H146.172V-30ZM134.243 74H136.586V-24H134.243V74ZM136.586 -26H134.414V72H136.586V-26ZM134.414 70H137.757V-28H134.414V70ZM105.23 -8.52692L99.2305 -2.52692L168.527 66.7696L174.527 60.7696L105.23 -8.52692ZM131.757 -16H119.243V82H131.757V-16ZM151.77 62.5269L163.77 50.5269L94.4731 -18.7696L82.4731 -6.76955L151.77 62.5269ZM99.2303 -2.5268C107.857 -11.1536 119.557 -16 131.757 -16V82C145.549 82 158.775 76.5215 168.527 66.7694L99.2303 -2.5268ZM168.356 55.9406C159.353 64.9433 147.144 70 134.414 70V-28C121.154 -28 108.436 -22.7326 99.0583 -13.3548L168.356 55.9406ZM134.414 -26C177.178 -26 198.593 25.7029 168.355 55.941L99.0587 -13.3552C67.561 18.1429 89.8687 72 134.414 72V-26ZM171.941 59.3552C203.439 27.8571 181.131 -26 136.586 -26V72C93.8221 72 72.4067 20.2971 102.645 -9.94097L171.941 59.3552ZM136.586 74C149.846 74 162.564 68.7326 171.942 59.3548L102.644 -9.9406C111.647 -18.9433 123.856 -24 136.586 -24V74ZM97.4731 -14.7695C64.7149 17.9886 87.9156 74 134.243 74V-24C175.224 -24 195.748 25.5485 166.77 54.5269L97.4731 -14.7695ZM134.243 -30C120.451 -30 107.225 -24.5215 97.473 -14.7695L166.77 54.5269C158.143 63.1536 146.443 68 134.243 68V-30ZM112.938 -16.2342C121.752 -25.0481 133.706 -30 146.172 -30V68C159.698 68 172.67 62.6266 182.234 53.0626L112.938 -16.2342ZM146.172 64C104.299 64 83.3291 13.3744 112.938 -16.2341L182.234 53.0625C214.362 20.9342 191.608 -34 146.172 -34V64ZM131.243 -34C117.451 -34 104.225 -28.5215 94.473 -18.7695L163.77 50.5268C155.143 59.1536 143.443 64 131.243 64V-34ZM96.8787 -34C83.3204 -34 70.3176 -28.614 60.7305 -19.027L130.027 50.2696C121.235 59.061 109.312 64 96.8787 64V-34ZM82.5607 77C95.8376 77 108.571 71.7257 117.959 62.3376L48.6624 -6.95889C57.6528 -15.9492 69.8463 -21 82.5607 -21V77ZM122.527 54.7695C155.285 22.0116 132.085 -34 85.7574 -34V64C44.7755 64 24.2523 14.4513 53.2304 -14.5269L122.527 54.7695ZM47.1625 -8.45899C15.6256 23.0778 37.9618 77 82.5607 77V-21C125.27 -21 146.659 30.6373 116.459 60.8377L47.1625 -8.45899ZM40.4731 -6.76954C7.71513 25.9884 30.9153 82 77.2426 82V-16C118.225 -16 138.748 33.5487 109.77 62.5269L40.4731 -6.76954ZM80.4393 69C37.7304 69 16.3406 17.3627 46.5412 -12.8377L115.837 56.459C147.374 24.9222 125.038 -29 80.4393 -29V69ZM114.338 54.9589C105.347 63.9492 93.1537 69 80.4393 69V-29C67.1624 -29 54.4293 -23.7257 45.0411 -14.3376L114.338 54.9589ZM112.749 50.0656C104.088 58.974 92.1921 64 79.7675 64V-34C65.7223 -34 52.2743 -28.3184 42.4837 -18.2481L112.749 50.0656ZM195.72 39.6177C228.271 6.7979 205.023 -49 158.799 -49V49C117.909 49 97.3441 -0.359668 126.139 -29.3926L195.72 39.6177ZM162.77 48.5269C154.143 57.1536 142.443 62 130.243 62V-36C116.451 -36 103.225 -30.5215 93.473 -20.7695L162.77 48.5269ZM107.757 82C121.549 82 134.775 76.5214 144.527 66.7694L75.2303 -2.5268C83.857 -11.1536 95.5574 -16 107.757 -16V82ZM57.4731 -6.76953C24.7149 25.9887 47.9157 82 94.2426 82V-16C135.224 -16 155.748 33.5485 126.77 62.5269L57.4731 -6.76953ZM99.7574 62C58.7759 62 38.2519 12.4515 67.2305 -16.527L136.527 52.7696C169.285 20.0113 146.084 -36 99.7574 -36V62ZM51.4731 -26.7695C18.7151 5.98842 41.9153 62 88.2426 62V-36C129.225 -36 149.748 13.5487 120.77 42.5269L51.4731 -26.7695ZM127.77 35.5268C119.143 44.1536 107.443 49 95.2426 49V-49C81.4514 -49 68.225 -43.5215 58.473 -33.7695L127.77 35.5268ZM30.2304 -8.52685C38.8571 -17.1536 50.5574 -22 62.7574 -22V76C76.5486 76 89.7751 70.5214 99.527 60.7695L30.2304 -8.52685ZM-11.5269 -6.76955C-44.2851 25.9886 -21.0844 82 25.2426 82V-16C66.2243 -16 86.7479 33.5485 57.7696 62.5269L-11.5269 -6.76955ZM1.25683 0.551354C9.99646 -9.9361 22.9429 -16 36.5949 -16V82C52.0275 82 66.6627 75.1452 76.5422 63.2898L1.25683 0.551354ZM133.027 53.2696C165.231 21.0651 142.423 -34 96.8787 -34V64C55.114 64 34.1987 13.5049 63.7304 -16.0269L133.027 53.2696ZM44.2304 -22.5268C52.8571 -31.1536 64.5574 -36 76.7574 -36V62C90.5486 62 103.775 56.5215 113.527 46.7695L44.2304 -22.5268ZM50.2303 -2.5268C58.857 -11.1536 70.5574 -16 82.7574 -16V82C96.5486 82 109.775 76.5214 119.527 66.7694L50.2303 -2.5268ZM83.7574 49C42.776 49 22.2518 -0.548376 51.2305 -29.527L120.527 39.7696C153.285 7.01123 130.084 -49 83.7574 -49V49ZM66.1064 82C79.6742 82 92.6863 76.6102 102.28 67.0163L32.9837 -2.28011C41.7683 -11.0648 53.6829 -16 66.1064 -16V82ZM-18.8459 -1.97108C-10.1788 -10.937 1.75714 -16 14.2275 -16V82C28.3244 82 41.8172 76.2767 51.6148 66.1412L-18.8459 -1.97108ZM46.7483 -22C43.9228 -22 40.9787 -21.7698 37.9614 -21.2516L54.5481 75.3345C51.8565 75.7968 49.2433 76 46.7483 76V-22ZM29.4268 -4.81809C-2.10204 27.6116 20.8768 82 66.1064 82V-16C107.521 -16 128.562 33.8011 99.6923 63.4956L29.4268 -4.81809ZM119.243 -16C160.225 -16 180.748 33.5487 151.77 62.5269L82.4731 -6.76954C49.7151 25.9885 72.9153 82 119.243 82V-16ZM48.8097 48.2022C45.9891 48.7344 43.1338 49 40.2788 49V-49C37.0529 -49 33.8249 -48.6996 30.6398 -48.0987L48.8097 48.2022ZM68.7574 64C27.7757 64 7.25202 14.4514 36.2305 -14.527L105.527 54.7696C138.285 22.0114 115.084 -34 68.7574 -34V64ZM151.857 62C165.723 62 179.014 56.4623 188.778 46.6178L119.196 -22.3927C127.833 -31.1013 139.591 -36 151.857 -36V62ZM137.757 70C96.7757 70 76.2521 20.4515 105.23 -8.52689L174.527 60.7695C207.285 28.0114 184.084 -28 137.757 -28V70ZM-33.5269 -6.76956C-66.2851 25.9886 -43.0844 82 3.24264 82V-16C44.2242 -16 64.748 33.5485 35.7696 62.5269L-33.5269 -6.76956Z" fill="#8128F2" mask="url(#path-1-inside-1_642_29)"/>
</svg>
