<svg width="87" height="25" viewBox="0 0 87 25" fill="none" xmlns="http://www.w3.org/2000/svg">
<mask id="path-1-inside-1_653_17" fill="white">
<path d="M13 24C26.3333 16.3333 42.4 1 0 1H59L35 24H13Z"/>
<path d="M64 0H65H87L62 25H39L64 0Z"/>
</mask>
<path d="M13 24L0.0397506 1.46044L-84.3769 50L13 50V24ZM35 24V50H45.447L52.9895 42.7717L35 24ZM59 1L76.9895 19.7717L123.708 -25L59 -25V1ZM64 0V-26H53.2304L45.6152 -18.3848L64 0ZM39 25L20.6152 6.61522L-23.7696 51H39V25ZM62 25V51H72.7696L80.3848 43.3848L62 25ZM87 0L105.385 18.3848L149.77 -26H87V0ZM0 27C9.80063 27 13.008 27.9869 12.8445 27.9269C12.6463 27.8542 9.64078 26.7803 6.60522 23.2741C2.93812 19.0386 1.02308 13.2982 1.4828 7.55162C1.86589 2.76308 3.73938 -0.237707 4.28158 -1.05233C4.93183 -2.02931 5.31146 -2.29435 4.8982 -1.91198C4.06303 -1.1392 2.31653 0.151289 0.0397506 1.46044L25.9602 46.5396C30.3501 44.0154 35.612 40.5142 40.2143 36.2557C42.5198 34.1225 45.2255 31.2819 47.57 27.7594C49.8064 24.3992 52.7424 18.8828 53.3172 11.6984C53.9686 3.55597 51.3744 -4.46044 45.9182 -10.7624C41.0936 -16.335 35.1891 -19.2657 30.743 -20.8957C22.0836 -24.0702 11.3994 -25 0 -25V27ZM13 50H35V-2H13V50ZM52.9895 42.7717L76.9895 19.7717L41.0105 -17.7717L17.0105 5.22831L52.9895 42.7717ZM59 -25H0V27H59V-25ZM65 -26H64V26H65V-26ZM45.6152 -18.3848L20.6152 6.61522L57.3848 43.3848L82.3848 18.3848L45.6152 -18.3848ZM39 51H62V-1H39V51ZM80.3848 43.3848L105.385 18.3848L68.6152 -18.3848L43.6152 6.61522L80.3848 43.3848ZM87 -26H65V26H87V-26Z" fill="#FF8000" mask="url(#path-1-inside-1_653_17)"/>
</svg>
