<svg width="102" height="26" viewBox="0 0 102 26" fill="none" xmlns="http://www.w3.org/2000/svg">
<mask id="path-1-inside-1_642_20" fill="white">
<path d="M102 0H79L53 26L76 25.5L102 0Z"/>
<path d="M74 1H51L27 25H49L74 1Z"/>
<path d="M46 1L22 25H0.5C13 17 31.2 1 4 1H46Z"/>
</mask>
<path d="M0 49.5H0.5V0.5H0V49.5ZM79 0V-49H58.7035L44.3518 -34.6482L79 0ZM102 0L136.31 34.983L221.94 -49L102 -49V0ZM76 25.5L77.065 74.4884L96.4601 74.0668L110.31 60.483L76 25.5ZM53 26L18.3518 -8.64823L-67.9371 77.6406L54.065 74.9884L53 26ZM51 1V-48H30.7035L16.3518 -33.6482L51 1ZM74 1L107.934 36.348L195.797 -48H74V1ZM49 25V74H68.7132L82.9341 60.348L49 25ZM27 25L-7.64823 -9.64823L-91.2965 74H27V25ZM22 25V74H42.2965L56.6482 59.6482L22 25ZM46 1L80.6482 35.6482L164.296 -48L46 -48V1ZM0.5 25L-25.9136 -16.2713L-166.963 74H0.5V25ZM79 49H102V-49H79V49ZM67.6898 -34.983L41.6898 -9.48297L110.31 60.483L136.31 34.983L67.6898 -34.983ZM74.935 -23.4884L51.935 -22.9884L54.065 74.9884L77.065 74.4884L74.935 -23.4884ZM87.6482 60.6482L113.648 34.6482L44.3518 -34.6482L18.3518 -8.64823L87.6482 60.6482ZM51 50H74V-48H51V50ZM40.0659 -34.348L15.0659 -10.348L82.9341 60.348L107.934 36.348L40.0659 -34.348ZM49 -24H27V74H49V-24ZM61.6482 59.6482L85.6482 35.6482L16.3518 -33.6482L-7.64823 -9.64823L61.6482 59.6482ZM56.6482 59.6482L80.6482 35.6482L11.3518 -33.6482L-12.6482 -9.64823L56.6482 59.6482ZM46 -48H4V50H46V-48ZM0.5 74H22V-24H0.5V74ZM4 50C5.30579 50 4.2382 50.1238 1.74677 49.5813C-0.26787 49.1427 -7.42832 47.3984 -14.9366 41.0551C-24.0362 33.3674 -30.3052 21.6423 -30.8213 8.39144C-31.2521 -2.66861 -27.5087 -10.4607 -25.9328 -13.3656C-22.9561 -18.8525 -20.0479 -20.7936 -21.8845 -19.2072C-22.7717 -18.4409 -24.2814 -17.3159 -25.9136 -16.2713L26.9136 66.2713C31.5314 63.3159 36.9842 59.4409 42.1752 54.9572C46.4167 51.2936 54.5186 43.8525 60.2078 33.3656C63.1399 27.9607 67.6192 17.7936 67.1045 4.57731C66.5044 -10.8298 59.3316 -24.4924 48.3085 -33.8051C38.8768 -41.7734 28.7733 -44.8302 22.5966 -46.1751C15.9431 -47.6238 9.49421 -48 4 -48V50Z" fill="#E80020" mask="url(#path-1-inside-1_642_20)"/>
</svg>
